<svg xmlns="http://www.w3.org/2000/svg" xmlns:xlink="http://www.w3.org/1999/xlink" fill="none" version="1.1" width="46" height="46" viewBox="0 0 46 46"><defs><clipPath id="master_svg0_130_10921"><rect x="0" y="0" width="46" height="46" rx="23"/></clipPath><clipPath id="master_svg1_130_10922"><rect x="33" y="12" width="20" height="20" rx="0"/></clipPath></defs><g clip-path="url(#master_svg0_130_10921)"><rect x="0" y="0" width="46" height="46" rx="23" fill="#EBEBEB" fill-opacity="1"/><g transform="matrix(0,1,-1,0,45,-21)" clip-path="url(#master_svg1_130_10922)"><g><path d="M36.541015625,22.00035C36.541015625,21.65517,36.820837625,21.37535,37.166015625,21.37535L48.991015625,21.37535L45.057265625,17.44285C44.812875625000004,17.198807,44.812595625,16.802859,45.056635625,16.558473C45.300685625,16.3140869,45.696625624999996,16.3138069,45.941015625,16.557848L50.941015625,21.557850000000002C51.185815625000004,21.80205,51.185815625000004,22.19864,50.941015625,22.44285L45.941015625,27.4428C45.696605625000004,27.686700000000002,45.300775625,27.6864,45.056795625,27.4421C44.812805624999996,27.197699999999998,44.813025625,26.8019,45.057265625,26.5578L48.991015625,22.62535L37.166014625,22.62535C36.820836625,22.62535,36.541014862061,22.34553,36.541015625,22.00035Z" fill="#000000" fill-opacity="1" style="mix-blend-mode:passthrough"/></g></g></g></svg>