<svg xmlns="http://www.w3.org/2000/svg" xmlns:xlink="http://www.w3.org/1999/xlink" fill="none" version="1.1" width="40" height="40" viewBox="0 0 40 40"><defs><clipPath id="master_svg0_130_10253"><rect x="10" y="11" width="20" height="20" rx="0"/></clipPath></defs><g><g><rect x="0" y="0" width="40" height="40" rx="20" fill="#F6F6F6" fill-opacity="1"/></g><g clip-path="url(#master_svg0_130_10253)"><g><path d="M26.97421875,16.41615234375L22.832918749999997,16.41615234375L22.832918749999997,12.27490234375L26.97291875,16.41490234375L26.97421875,16.41615234375ZM22.320518749999998,16.92865234375L22.320518749999998,12.27615232375L13.01421875,12.27615232375L13.01421875,20.41865234375L26.97291875,20.41865234375L26.97291875,16.92865234375L22.320518749999998,16.92865234375ZM10.69921875,21.582402343749997L10.69921875,29.72490234375L29.29921875,29.72490234375L29.29921875,21.582402343749997L10.69921875,21.582402343749997ZM21.626718750000002,27.91870234375C21.22801875,28.32990234375,20.65171875,28.53490234375,19.896718749999998,28.53490234375C19.14296875,28.53490234375,18.56546875,28.32990234375,18.16671875,27.91870234375C17.63171875,27.41490234375,17.36421875,26.68860234375,17.36421875,25.74120234375C17.36421875,24.77370234375,17.63171875,24.04740234375,18.16671875,23.56240234375C18.56671875,23.152402343749998,19.141718750000003,22.946202343750002,19.896718749999998,22.946202343750002C20.65171875,22.946202343750002,21.22801875,23.152402343749998,21.626718750000002,23.56240234375C22.16051875,24.04740234375,22.42671875,24.77370234375,22.42671875,25.74120234375C22.42671875,26.688702343750002,22.16051875,27.41490234375,21.626718750000002,27.91870234375ZM27.73551875,24.86620234375L26.631718749999997,24.86620234375C26.58221875,24.65780234375,26.48841875,24.46250234375,26.35671875,24.29370234375C26.15551875,24.06360234375,25.85671875,23.94990234375,25.46421875,23.94990234375C25.085418750000002,23.93810234375,24.72691875,24.12120234375,24.514218749999998,24.43490234375C24.28291875,24.758702343750002,24.16671875,25.21620234375,24.16671875,25.80990234375C24.16671875,26.40120234375,24.28921875,26.84490234375,24.53421875,27.139902343750002C24.75891875,27.42550234375,25.10461875,27.58930234375,25.467918750000003,27.582402343749997C25.85541875,27.582402343749997,26.14921875,27.45490234375,26.35171875,27.202402343750002C26.46421875,27.06490234375,26.55791875,26.86240234375,26.631718749999997,26.589902343749998L27.72421875,26.589902343749998C27.62921875,27.16490234375,27.38421875,27.633702343750002,26.99171875,27.99370234375C26.59921875,28.35490234375,26.09541875,28.53490234375,25.48171875,28.53490234375C24.72171875,28.53490234375,24.12541875,28.29120234375,23.69041875,27.80370234375C23.25541875,27.31490234375,23.03921875,26.64370234375,23.03921875,25.79120234375C23.03921875,24.86870234375,23.285418749999998,24.15870234375,23.780418750000003,23.659902343749998C24.210418750000002,23.22490234375,24.756718749999997,23.00740234375,25.42041875,23.00740234375C26.30921875,23.00740234375,26.95791875,23.29870234375,27.37041875,23.88240234375C27.59541875,24.208702343749998,27.71791875,24.53740234375,27.73551875,24.86620234375ZM14.53671875,28.38740234375L12.26171875,28.38740234375L12.26171875,23.10740234375L14.53671875,23.10740234375C14.86421875,23.11240234375,15.13671875,23.15120234375,15.354218750000001,23.222402343749998C15.72421875,23.34370234375,16.02296875,23.56740234375,16.25296875,23.89240234375C16.43671875,24.154902343750003,16.56171875,24.43860234375,16.62796875,24.74490234375C16.69546875,25.04990234375,16.72921875,25.342402343750003,16.72921875,25.61990234375C16.72921875,26.31990234375,16.58796875,26.916102343749998,16.30671875,27.402402343749998C15.92421875,28.05990234375,15.33421875,28.38740234375,14.53671875,28.38740234375ZM20.93671875,27.11620234375C21.19301875,26.79370234375,21.321718750000002,26.334902343750002,21.321718750000002,25.74120234375C21.321718750000002,25.14870234375,21.19301875,24.69120234375,20.93671875,24.36620234375C20.67921875,24.04370234375,20.33296875,23.88110234375,19.89546875,23.88110234375C19.45796875,23.88110234375,19.110468750000003,24.04370234375,18.850468749999997,24.36490234375C18.58921875,24.68740234375,18.459218749999998,25.14610234375,18.459218749999998,25.73990234375C18.459218749999998,26.334902343750002,18.58921875,26.79370234375,18.850468749999997,27.11610234375C19.110468750000003,27.43860234375,19.459218749999998,27.59990234375,19.89546875,27.59990234375C20.33296875,27.59990234375,20.67921875,27.43860234375,20.93671875,27.11620234375ZM13.33421875,24.02490234375L13.33421875,27.471102343749997L14.35171875,27.471102343749997C14.87296875,27.471102343749997,15.235468749999999,27.21370234375,15.44046875,26.70110234375C15.55296875,26.41870234375,15.60921875,26.08360234375,15.60921875,25.69360234375C15.60921875,25.15620234375,15.52546875,24.74370234375,15.356718749999999,24.45620234375C15.18796875,24.16870234375,14.852968749999999,24.02490234375,14.35171875,24.02490234375L13.33421875,24.02490234375Z" fill="#454545" fill-opacity="1" style="mix-blend-mode:passthrough"/></g></g></g></svg>