<svg xmlns="http://www.w3.org/2000/svg" xmlns:xlink="http://www.w3.org/1999/xlink" fill="none" version="1.1" width="40" height="40" viewBox="0 0 40 40"><defs><clipPath id="master_svg0_130_10263"><rect x="0" y="0" width="40" height="40" rx="20"/></clipPath></defs><g clip-path="url(#master_svg0_130_10263)"><rect x="0" y="0" width="40" height="40" rx="20" fill="#F6F6F6" fill-opacity="1"/><g><path d="M20.0011,10.000000896546C14.475480000000001,9.99770574,10,14.59261,10,20.2639C10,24.7487,12.79969,28.5609,16.69869,29.961C17.223770000000002,30.0964,17.143340000000002,29.7131,17.143340000000002,29.4515L17.143340000000002,27.6727C14.111270000000001,28.0376,13.98838,25.976599999999998,13.78505,25.6323C13.37392,24.9116,12.40197,24.728,12.69244,24.3838C13.38286,24.0188,14.08669,24.4756,14.90225,25.712600000000002C15.49212,26.6101,16.64283,26.4586,17.22601,26.3094C17.353369999999998,25.77,17.62596,25.288,18.00134,24.913899999999998C14.85979,24.3356,13.55044,22.366300000000003,13.55044,20.025199999999998C13.55044,18.88915,13.91465,17.84485,14.62965,17.00253C14.17384,15.613959999999999,14.6721,14.42506,14.739139999999999,14.248339999999999C16.037309999999998,14.12899,17.386879999999998,15.20312,17.4919,15.288039999999999C18.22925,15.083770000000001,19.07161,14.9759,20.014499999999998,14.9759C20.9619,14.9759,21.8065,15.08836,22.5506,15.29493C22.803,15.09755,24.054299999999998,14.174890000000001,25.2609,14.28735C25.325699999999998,14.46408,25.8128,15.62543,25.3838,16.99564C26.1077,17.84026,26.4764,18.893729999999998,26.4764,20.0321C26.4764,22.3778,25.158099999999997,24.3493,22.0076,24.9185C22.5327,25.451,22.8589,26.19,22.8589,27.0071L22.8589,29.5892C22.8768,29.7957,22.8589,30,23.1941,30C27.1512,28.6298,30,24.79,30,20.266199999999998C30,14.59261,25.5223,10.000000896546,20.0011,10.000000896546Z" fill="#000000" fill-opacity="1" style="mix-blend-mode:passthrough"/></g></g></svg>