<svg xmlns="http://www.w3.org/2000/svg" xmlns:xlink="http://www.w3.org/1999/xlink" fill="none" version="1.1" width="40" height="40" viewBox="0 0 40 40"><defs><clipPath id="master_svg0_130_10260"><rect x="10" y="10" width="21" height="21" rx="0"/></clipPath></defs><g><g><rect x="0" y="0" width="40" height="40" rx="20" fill="#F6F6F6" fill-opacity="1"/></g><g clip-path="url(#master_svg0_130_10260)"><g><path d="M17.91055,28.5772L18.23722,23.642200000000003L27.1972,15.56889C27.5939,15.20723,27.1156,15.03223,26.5906,15.34723L15.53055,22.3356L10.747216,20.81889C9.72055,20.52722,9.708883,19.815559999999998,10.980550000000001,19.30222L29.6122,12.115558C30.4639,11.730558,31.2806,12.325558000000001,30.9539,13.63222L27.7805,28.5772C27.5589,29.6389,26.9172,29.8956,26.0305,29.4056L21.200499999999998,25.8356L18.878880000000002,28.0872C18.61055,28.3556,18.38888,28.5772,17.91055,28.5772Z" fill="#454545" fill-opacity="1" style="mix-blend-mode:passthrough"/></g></g></g></svg>