<svg xmlns="http://www.w3.org/2000/svg" xmlns:xlink="http://www.w3.org/1999/xlink" fill="none" version="1.1" width="40" height="40" viewBox="0 0 40 40"><defs><linearGradient x1="1" y1="0.5" x2="0.01861313357949257" y2="0.5" id="master_svg0_2_2374"><stop offset="0%" stop-color="#B9FBFF" stop-opacity="1"/><stop offset="100%" stop-color="#F9A9F2" stop-opacity="1"/></linearGradient></defs><g><g><rect x="0" y="0" width="40" height="40" rx="20" fill="#F6F6F6" fill-opacity="1"/></g><g><g><path d="M11.000190442,22.162964549865723C10.9870992,21.65571554986572,11.650415,21.57872354986572,11.829337,21.69194854986572C11.864248,21.71459354986572,11.903524,21.74176854986572,11.934071,21.787058549865723C12.60175,22.83325454986572,14.36041,24.549754549865725,16.6602,24.490874549865723C18.82908,24.436524549865723,19.59713,22.910254549865723,20.33463,21.891226549865724C20.749200000000002,21.316042149865723,21.098300000000002,21.293397149865722,21.5347,21.456441549865723Q22.145699999999998,21.678362549865724,22.691200000000002,22.375824549865722C22.813299999999998,22.50264454986572,22.8701,22.679274549865724,22.843899999999998,22.851374549865724C22.8003,23.136704549865723,22.2548,24.02891454986572,21.7791,24.51804454986572Q22.8003,24.49540454986572,23.729799999999997,24.069674549865724C24.462899999999998,23.73453454986572,24.912399999999998,23.168404549865723,25.4361,22.412064549865722C25.7066,22.018036549865723,25.8245,22.140319549865723,26.0339,22.045210549865722C26.413600000000002,21.877636549865723,28.4995,22.720034549865723,28.9839,23.730004549865722Q29.1192,24.536164549865724,28.1155,25.83598454986572C27.2078,27.01352454986572,24.759700000000002,30.500864549865724,18.96435,29.939264549865722C13.1647,29.382194549865723,11.0525581,24.26895454986572,11.000190442,22.162964549865723Z" fill="#454545" fill-opacity="1"/></g><g><path d="M11.196567182163715,13.41746Q10.838724182163716,11.82325,12.073717182163715,10.514368C13.308705182163715,9.205486,15.255015182163715,10.713644,15.586675182163717,11.51075Q15.861605182163714,11.96818,15.202655182163715,12.19463C14.543695182163715,12.42108,13.391625182163715,12.81963,12.322465182163715,13.87489Q11.445311182163715,14.49989,11.196567182163715,13.41746Z" fill="#454545" fill-opacity="1"/></g><g><path d="M17.223147022857667,17.801537560577394C17.087867022857665,19.32327756057739,16.136537022857667,19.884877560577394,15.486307022857666,19.717297560577393C14.783716022857666,19.536137560577394,14.373507022857666,18.784327560577392,14.373507022857666,17.801537560577394C14.373507022857666,16.81873956057739,14.700802022857665,15.831417560577393,15.783057022857665,15.831417560577393C16.572927022857666,15.831417560577393,17.310427022857667,16.82327056057739,17.223147022857667,17.801537560577394Z" fill="#454545" fill-opacity="1"/></g><g><path d="M20.68810909210205,16.97272724822998C20.66628909210205,16.941023248229982,20.61828909210205,16.859501848229982,20.526643092102052,16.83685679822998C20.28226509210205,16.77798034822998,19.60585594210205,17.19011824822998,19.61458166150205,17.49356224822998C19.623310052102052,17.88305724822998,20.49609609210205,18.28613724822998,20.58337409210205,18.30878724822998C20.67064909210205,18.32689724822998,20.90193909210205,17.31693124822998,20.68810909210205,16.97272724822998Z" fill="#454545" fill-opacity="1"/></g><g><path d="M25.802632370300294,21.012598393554686C25.802632370300294,21.99085839355469,25.038942370300294,22.78796839355469,24.091972370300294,22.78796839355469C23.14936537030029,22.78796839355469,22.381312370300293,21.995388393554688,22.381312370300293,21.012598393554686C22.381312370300293,20.034333393554686,23.144999370300294,19.237228393554688,24.091972370300294,19.237228393554688C25.034582370300292,19.237228393554688,25.802632370300294,20.034333393554686,25.802632370300294,21.012598393554686Z" fill="url(#master_svg0_2_2374)" fill-opacity="1"/></g></g></g></svg>